<svg aria-roledescription="er" viewBox="0 0 457.9004821777344 856" style="max-width: 457.9px; background-color: white;" xmlns:xlink="http://www.w3.org/1999/xlink" xmlns="http://www.w3.org/2000/svg" width="100%" id="mermaid-0"><style>#mermaid-0{font-family:"trebuchet ms",verdana,arial,sans-serif;font-size:16px;fill:#000000;}#mermaid-0 .error-icon{fill:#552222;}#mermaid-0 .error-text{fill:#552222;stroke:#552222;}#mermaid-0 .edge-thickness-normal{stroke-width:2px;}#mermaid-0 .edge-thickness-thick{stroke-width:3.5px;}#mermaid-0 .edge-pattern-solid{stroke-dasharray:0;}#mermaid-0 .edge-pattern-dashed{stroke-dasharray:3;}#mermaid-0 .edge-pattern-dotted{stroke-dasharray:2;}#mermaid-0 .marker{fill:#000000;stroke:#000000;}#mermaid-0 .marker.cross{stroke:#000000;}#mermaid-0 svg{font-family:"trebuchet ms",verdana,arial,sans-serif;font-size:16px;}#mermaid-0 .entityBox{fill:#cde498;stroke:#13540c;}#mermaid-0 .attributeBoxOdd{fill:#ffffff;stroke:#13540c;}#mermaid-0 .attributeBoxEven{fill:#f2f2f2;stroke:#13540c;}#mermaid-0 .relationshipLabelBox{fill:hsl(78.1578947368, 58.4615384615%, 84.5098039216%);opacity:0.7;background-color:hsl(78.1578947368, 58.4615384615%, 84.5098039216%);}#mermaid-0 .relationshipLabelBox rect{opacity:0.5;}#mermaid-0 .relationshipLine{stroke:#000000;}#mermaid-0 .entityTitleText{text-anchor:middle;font-size:18px;fill:#000000;}#mermaid-0 :root{--mermaid-font-family:"trebuchet ms",verdana,arial,sans-serif;}</style><g/><defs><marker orient="auto" markerHeight="18" markerWidth="18" refY="9" refX="0" id="ONLY_ONE_START"><path d="M9,0 L9,18 M15,0 L15,18" fill="none" stroke="gray"/></marker></defs><defs><marker orient="auto" markerHeight="18" markerWidth="18" refY="9" refX="18" id="ONLY_ONE_END"><path d="M3,0 L3,18 M9,0 L9,18" fill="none" stroke="gray"/></marker></defs><defs><marker orient="auto" markerHeight="18" markerWidth="30" refY="9" refX="0" id="ZERO_OR_ONE_START"><circle r="6" cy="9" cx="21" fill="white" stroke="gray"/><path d="M9,0 L9,18" fill="none" stroke="gray"/></marker></defs><defs><marker orient="auto" markerHeight="18" markerWidth="30" refY="9" refX="30" id="ZERO_OR_ONE_END"><circle r="6" cy="9" cx="9" fill="white" stroke="gray"/><path d="M21,0 L21,18" fill="none" stroke="gray"/></marker></defs><defs><marker orient="auto" markerHeight="36" markerWidth="45" refY="18" refX="18" id="ONE_OR_MORE_START"><path d="M0,18 Q 18,0 36,18 Q 18,36 0,18 M42,9 L42,27" fill="none" stroke="gray"/></marker></defs><defs><marker orient="auto" markerHeight="36" markerWidth="45" refY="18" refX="27" id="ONE_OR_MORE_END"><path d="M3,9 L3,27 M9,18 Q27,0 45,18 Q27,36 9,18" fill="none" stroke="gray"/></marker></defs><defs><marker orient="auto" markerHeight="36" markerWidth="57" refY="18" refX="18" id="ZERO_OR_MORE_START"><circle r="6" cy="18" cx="48" fill="white" stroke="gray"/><path d="M0,18 Q18,0 36,18 Q18,36 0,18" fill="none" stroke="gray"/></marker></defs><defs><marker orient="auto" markerHeight="36" markerWidth="57" refY="18" refX="39" id="ZERO_OR_MORE_END"><circle r="6" cy="18" cx="9" fill="white" stroke="gray"/><path d="M21,18 Q39,0 57,18 Q39,36 21,18" fill="none" stroke="gray"/></marker></defs><path style="stroke: gray; fill: none;" marker-start="url(#ZERO_OR_ONE_START)" marker-end="url(#ONLY_ONE_END)" d="M121.18843523426689,607L118.1134044839594,615.3333333333334C115.03837373365188,623.6666666666666,108.88831223303687,640.3333333333334,105.81328148272938,662.25C102.73825073242188,684.1666666666666,102.73825073242188,711.3333333333334,102.73825073242188,724.9166666666666L102.73825073242188,738.5" class="er relationshipLine"/><path style="stroke: gray; fill: none;" marker-start="url(#ZERO_OR_MORE_START)" marker-end="url(#ZERO_OR_ONE_END)" d="M226.1667394321343,607L233.32351220988406,615.3333333333334C240.4802849876338,623.6666666666666,254.79383054313334,640.3333333333334,269.04388407425057,657C283.29393760536783,673.6666666666666,297.48049911210285,690.3333333333334,304.5737798654704,698.6666666666666L311.66706061883787,707" class="er relationshipLine"/><path style="stroke: gray; fill: none;" marker-start="url(#ZERO_OR_MORE_START)" marker-end="url(#ONLY_ONE_END)" d="M102.73825073242188,336L102.73825073242188,344.3333333333333C102.73825073242188,352.6666666666667,102.73825073242188,369.3333333333333,105.81328148272938,386C108.88831223303687,402.6666666666667,115.03837373365188,419.3333333333333,118.11340448395937,427.6666666666667L121.18843523426689,436" class="er relationshipLine"/><path style="stroke: gray; fill: none;" marker-start="url(#ZERO_OR_MORE_START)" marker-end="url(#ONLY_ONE_END)" d="M102.73825073242188,128L102.73825073242188,136.33333333333334C102.73825073242188,144.66666666666666,102.73825073242188,161.33333333333334,102.73825073242188,178C102.73825073242188,194.66666666666666,102.73825073242188,211.33333333333334,102.73825073242188,219.66666666666666L102.73825073242188,228" class="er relationshipLine"/><path style="stroke: gray; fill: none;" marker-start="url(#ZERO_OR_MORE_START)" marker-end="url(#ZERO_OR_ONE_END)" d="M377.38636134221,304.5L383.9168100601587,318.0833333333333C390.4472587781074,331.6666666666667,403.5081562140049,358.8333333333333,410.0386049319536,395C416.56905364990234,431.1666666666667,416.56905364990234,476.3333333333333,416.56905364990234,521.5C416.56905364990234,566.6666666666666,416.56905364990234,611.8333333333334,412.93004346067386,642.75C409.29103327144526,673.6666666666666,402.0130128929882,690.3333333333334,398.3740027037597,698.6666666666666L394.73499251453114,707" class="er relationshipLine"/><path style="stroke: gray; fill: none;" marker-start="url(#ZERO_OR_MORE_START)" marker-end="url(#ZERO_OR_ONE_END)" d="M345.48359456429114,304.5L332.75422482001477,318.0833333333333C320.02485507573834,331.6666666666667,294.5661155871856,358.8333333333333,274.67997306515946,380.75C254.79383054313334,402.6666666666667,240.4802849876338,419.3333333333333,233.32351220988406,427.6666666666667L226.1667394321343,436" class="er relationshipLine"/><g transform="translate(52.738250732421875,738.5 )" id="entity-TrailStatus-2861355f-6596-4a92-9527-40f522a7a405"><rect height="66" width="100" y="0" x="0" class="er entityBox"/><text style="dominant-baseline: middle; text-anchor: middle; font-size: 12px;" transform="translate(50,12)" y="0" x="0" id="text-entity-TrailStatus-2861355f-6596-4a92-9527-40f522a7a405" class="er entityLabel">TrailStatus</text><rect height="21" width="50" y="24" x="0" class="er attributeBoxOdd"/><text style="dominant-baseline: middle; font-size: 10.2px;" transform="translate(5,34.5)" y="0" x="0" id="text-entity-TrailStatus-2861355f-6596-4a92-9527-40f522a7a405-attr-1-type" class="er entityLabel">ACTIVE</text><rect height="21" width="50" y="24" x="50" class="er attributeBoxOdd"/><text style="dominant-baseline: middle; font-size: 10.2px;" transform="translate(55,34.5)" y="0" x="0" id="text-entity-TrailStatus-2861355f-6596-4a92-9527-40f522a7a405-attr-1-name" class="er entityLabel">ACTIVE</text><rect height="21" width="50" y="45" x="0" class="er attributeBoxEven"/><text style="dominant-baseline: middle; font-size: 10.2px;" transform="translate(5,55.5)" y="0" x="0" id="text-entity-TrailStatus-2861355f-6596-4a92-9527-40f522a7a405-attr-2-type" class="er entityLabel">INATIVE</text><rect height="21" width="50" y="45" x="50" class="er attributeBoxEven"/><text style="dominant-baseline: middle; font-size: 10.2px;" transform="translate(55,55.5)" y="0" x="0" id="text-entity-TrailStatus-2861355f-6596-4a92-9527-40f522a7a405-attr-2-name" class="er entityLabel">INATIVE</text></g><g transform="translate(57.81489562988281,436 )" id="entity-trails-7989e764-1573-4bc8-984d-27788a23ec2b"><rect height="171" width="189.84671020507812" y="0" x="0" class="er entityBox"/><text style="dominant-baseline: middle; text-anchor: middle; font-size: 12px;" transform="translate(94.92335510253906,12)" y="0" x="0" id="text-entity-trails-7989e764-1573-4bc8-984d-27788a23ec2b" class="er entityLabel">trails</text><rect height="21" width="58.3125" y="24" x="0" class="er attributeBoxOdd"/><text style="dominant-baseline: middle; font-size: 10.2px;" transform="translate(5,34.5)" y="0" x="0" id="text-entity-trails-7989e764-1573-4bc8-984d-27788a23ec2b-attr-1-type" class="er entityLabel">String</text><rect height="21" width="62.2860107421875" y="24" x="58.3125" class="er attributeBoxOdd"/><text style="dominant-baseline: middle; font-size: 10.2px;" transform="translate(63.3125,34.5)" y="0" x="0" id="text-entity-trails-7989e764-1573-4bc8-984d-27788a23ec2b-attr-1-name" class="er entityLabel">id</text><rect height="21" width="23.79498291015625" y="24" x="120.5985107421875" class="er attributeBoxOdd"/><text style="dominant-baseline: middle; font-size: 10.2px;" transform="translate(125.5985107421875,34.5)" y="0" x="0" id="text-entity-trails-7989e764-1573-4bc8-984d-27788a23ec2b-attr-1-key" class="er entityLabel">PK</text><rect height="21" width="45.453216552734375" y="24" x="144.39349365234375" class="er attributeBoxOdd"/><text style="dominant-baseline: middle; font-size: 10.2px;" transform="translate(149.39349365234375,34.5)" y="0" x="0" id="text-entity-trails-7989e764-1573-4bc8-984d-27788a23ec2b-attr-1-comment" class="er entityLabel"/><rect height="21" width="58.3125" y="45" x="0" class="er attributeBoxEven"/><text style="dominant-baseline: middle; font-size: 10.2px;" transform="translate(5,55.5)" y="0" x="0" id="text-entity-trails-7989e764-1573-4bc8-984d-27788a23ec2b-attr-2-type" class="er entityLabel">String</text><rect height="21" width="62.2860107421875" y="45" x="58.3125" class="er attributeBoxEven"/><text style="dominant-baseline: middle; font-size: 10.2px;" transform="translate(63.3125,55.5)" y="0" x="0" id="text-entity-trails-7989e764-1573-4bc8-984d-27788a23ec2b-attr-2-name" class="er entityLabel">title</text><rect height="21" width="23.79498291015625" y="45" x="120.5985107421875" class="er attributeBoxEven"/><text style="dominant-baseline: middle; font-size: 10.2px;" transform="translate(125.5985107421875,55.5)" y="0" x="0" id="text-entity-trails-7989e764-1573-4bc8-984d-27788a23ec2b-attr-2-key" class="er entityLabel"/><rect height="21" width="45.453216552734375" y="45" x="144.39349365234375" class="er attributeBoxEven"/><text style="dominant-baseline: middle; font-size: 10.2px;" transform="translate(149.39349365234375,55.5)" y="0" x="0" id="text-entity-trails-7989e764-1573-4bc8-984d-27788a23ec2b-attr-2-comment" class="er entityLabel"/><rect height="21" width="58.3125" y="66" x="0" class="er attributeBoxOdd"/><text style="dominant-baseline: middle; font-size: 10.2px;" transform="translate(5,76.5)" y="0" x="0" id="text-entity-trails-7989e764-1573-4bc8-984d-27788a23ec2b-attr-3-type" class="er entityLabel">String</text><rect height="21" width="62.2860107421875" y="66" x="58.3125" class="er attributeBoxOdd"/><text style="dominant-baseline: middle; font-size: 10.2px;" transform="translate(63.3125,76.5)" y="0" x="0" id="text-entity-trails-7989e764-1573-4bc8-984d-27788a23ec2b-attr-3-name" class="er entityLabel">description</text><rect height="21" width="23.79498291015625" y="66" x="120.5985107421875" class="er attributeBoxOdd"/><text style="dominant-baseline: middle; font-size: 10.2px;" transform="translate(125.5985107421875,76.5)" y="0" x="0" id="text-entity-trails-7989e764-1573-4bc8-984d-27788a23ec2b-attr-3-key" class="er entityLabel"/><rect height="21" width="45.453216552734375" y="66" x="144.39349365234375" class="er attributeBoxOdd"/><text style="dominant-baseline: middle; font-size: 10.2px;" transform="translate(149.39349365234375,76.5)" y="0" x="0" id="text-entity-trails-7989e764-1573-4bc8-984d-27788a23ec2b-attr-3-comment" class="er entityLabel">nullable</text><rect height="21" width="58.3125" y="87" x="0" class="er attributeBoxEven"/><text style="dominant-baseline: middle; font-size: 10.2px;" transform="translate(5,97.5)" y="0" x="0" id="text-entity-trails-7989e764-1573-4bc8-984d-27788a23ec2b-attr-4-type" class="er entityLabel">String</text><rect height="21" width="62.2860107421875" y="87" x="58.3125" class="er attributeBoxEven"/><text style="dominant-baseline: middle; font-size: 10.2px;" transform="translate(63.3125,97.5)" y="0" x="0" id="text-entity-trails-7989e764-1573-4bc8-984d-27788a23ec2b-attr-4-name" class="er entityLabel">slug</text><rect height="21" width="23.79498291015625" y="87" x="120.5985107421875" class="er attributeBoxEven"/><text style="dominant-baseline: middle; font-size: 10.2px;" transform="translate(125.5985107421875,97.5)" y="0" x="0" id="text-entity-trails-7989e764-1573-4bc8-984d-27788a23ec2b-attr-4-key" class="er entityLabel"/><rect height="21" width="45.453216552734375" y="87" x="144.39349365234375" class="er attributeBoxEven"/><text style="dominant-baseline: middle; font-size: 10.2px;" transform="translate(149.39349365234375,97.5)" y="0" x="0" id="text-entity-trails-7989e764-1573-4bc8-984d-27788a23ec2b-attr-4-comment" class="er entityLabel"/><rect height="21" width="58.3125" y="108" x="0" class="er attributeBoxOdd"/><text style="dominant-baseline: middle; font-size: 10.2px;" transform="translate(5,118.5)" y="0" x="0" id="text-entity-trails-7989e764-1573-4bc8-984d-27788a23ec2b-attr-5-type" class="er entityLabel">TrailStatus</text><rect height="21" width="62.2860107421875" y="108" x="58.3125" class="er attributeBoxOdd"/><text style="dominant-baseline: middle; font-size: 10.2px;" transform="translate(63.3125,118.5)" y="0" x="0" id="text-entity-trails-7989e764-1573-4bc8-984d-27788a23ec2b-attr-5-name" class="er entityLabel">status</text><rect height="21" width="23.79498291015625" y="108" x="120.5985107421875" class="er attributeBoxOdd"/><text style="dominant-baseline: middle; font-size: 10.2px;" transform="translate(125.5985107421875,118.5)" y="0" x="0" id="text-entity-trails-7989e764-1573-4bc8-984d-27788a23ec2b-attr-5-key" class="er entityLabel"/><rect height="21" width="45.453216552734375" y="108" x="144.39349365234375" class="er attributeBoxOdd"/><text style="dominant-baseline: middle; font-size: 10.2px;" transform="translate(149.39349365234375,118.5)" y="0" x="0" id="text-entity-trails-7989e764-1573-4bc8-984d-27788a23ec2b-attr-5-comment" class="er entityLabel"/><rect height="21" width="58.3125" y="129" x="0" class="er attributeBoxEven"/><text style="dominant-baseline: middle; font-size: 10.2px;" transform="translate(5,139.5)" y="0" x="0" id="text-entity-trails-7989e764-1573-4bc8-984d-27788a23ec2b-attr-6-type" class="er entityLabel">DateTime</text><rect height="21" width="62.2860107421875" y="129" x="58.3125" class="er attributeBoxEven"/><text style="dominant-baseline: middle; font-size: 10.2px;" transform="translate(63.3125,139.5)" y="0" x="0" id="text-entity-trails-7989e764-1573-4bc8-984d-27788a23ec2b-attr-6-name" class="er entityLabel">created_At</text><rect height="21" width="23.79498291015625" y="129" x="120.5985107421875" class="er attributeBoxEven"/><text style="dominant-baseline: middle; font-size: 10.2px;" transform="translate(125.5985107421875,139.5)" y="0" x="0" id="text-entity-trails-7989e764-1573-4bc8-984d-27788a23ec2b-attr-6-key" class="er entityLabel"/><rect height="21" width="45.453216552734375" y="129" x="144.39349365234375" class="er attributeBoxEven"/><text style="dominant-baseline: middle; font-size: 10.2px;" transform="translate(149.39349365234375,139.5)" y="0" x="0" id="text-entity-trails-7989e764-1573-4bc8-984d-27788a23ec2b-attr-6-comment" class="er entityLabel"/><rect height="21" width="58.3125" y="150" x="0" class="er attributeBoxOdd"/><text style="dominant-baseline: middle; font-size: 10.2px;" transform="translate(5,160.5)" y="0" x="0" id="text-entity-trails-7989e764-1573-4bc8-984d-27788a23ec2b-attr-7-type" class="er entityLabel">DateTime</text><rect height="21" width="62.2860107421875" y="150" x="58.3125" class="er attributeBoxOdd"/><text style="dominant-baseline: middle; font-size: 10.2px;" transform="translate(63.3125,160.5)" y="0" x="0" id="text-entity-trails-7989e764-1573-4bc8-984d-27788a23ec2b-attr-7-name" class="er entityLabel">updated_At</text><rect height="21" width="23.79498291015625" y="150" x="120.5985107421875" class="er attributeBoxOdd"/><text style="dominant-baseline: middle; font-size: 10.2px;" transform="translate(125.5985107421875,160.5)" y="0" x="0" id="text-entity-trails-7989e764-1573-4bc8-984d-27788a23ec2b-attr-7-key" class="er entityLabel"/><rect height="21" width="45.453216552734375" y="150" x="144.39349365234375" class="er attributeBoxOdd"/><text style="dominant-baseline: middle; font-size: 10.2px;" transform="translate(149.39349365234375,160.5)" y="0" x="0" id="text-entity-trails-7989e764-1573-4bc8-984d-27788a23ec2b-attr-7-comment" class="er entityLabel"/></g><g transform="translate(20,228 )" id="entity-Course-21000a6b-6fb1-4165-baf7-01d617c29bb6"><rect height="108" width="165.47650146484375" y="0" x="0" class="er entityBox"/><text style="dominant-baseline: middle; text-anchor: middle; font-size: 12px;" transform="translate(82.73825073242188,12)" y="0" x="0" id="text-entity-Course-21000a6b-6fb1-4165-baf7-01d617c29bb6" class="er entityLabel">Course</text><rect height="21" width="36.947052001953125" y="24" x="0" class="er attributeBoxOdd"/><text style="dominant-baseline: middle; font-size: 10.2px;" transform="translate(5,34.5)" y="0" x="0" id="text-entity-Course-21000a6b-6fb1-4165-baf7-01d617c29bb6-attr-1-type" class="er entityLabel">String</text><rect height="21" width="59.28125" y="24" x="36.947052001953125" class="er attributeBoxOdd"/><text style="dominant-baseline: middle; font-size: 10.2px;" transform="translate(41.947052001953125,34.5)" y="0" x="0" id="text-entity-Course-21000a6b-6fb1-4165-baf7-01d617c29bb6-attr-1-name" class="er entityLabel">id</text><rect height="21" width="23.79498291015625" y="24" x="96.22830200195312" class="er attributeBoxOdd"/><text style="dominant-baseline: middle; font-size: 10.2px;" transform="translate(101.22830200195312,34.5)" y="0" x="0" id="text-entity-Course-21000a6b-6fb1-4165-baf7-01d617c29bb6-attr-1-key" class="er entityLabel">PK</text><rect height="21" width="45.453216552734375" y="24" x="120.02328491210938" class="er attributeBoxOdd"/><text style="dominant-baseline: middle; font-size: 10.2px;" transform="translate(125.02328491210938,34.5)" y="0" x="0" id="text-entity-Course-21000a6b-6fb1-4165-baf7-01d617c29bb6-attr-1-comment" class="er entityLabel"/><rect height="21" width="36.947052001953125" y="45" x="0" class="er attributeBoxEven"/><text style="dominant-baseline: middle; font-size: 10.2px;" transform="translate(5,55.5)" y="0" x="0" id="text-entity-Course-21000a6b-6fb1-4165-baf7-01d617c29bb6-attr-2-type" class="er entityLabel">String</text><rect height="21" width="59.28125" y="45" x="36.947052001953125" class="er attributeBoxEven"/><text style="dominant-baseline: middle; font-size: 10.2px;" transform="translate(41.947052001953125,55.5)" y="0" x="0" id="text-entity-Course-21000a6b-6fb1-4165-baf7-01d617c29bb6-attr-2-name" class="er entityLabel">title</text><rect height="21" width="23.79498291015625" y="45" x="96.22830200195312" class="er attributeBoxEven"/><text style="dominant-baseline: middle; font-size: 10.2px;" transform="translate(101.22830200195312,55.5)" y="0" x="0" id="text-entity-Course-21000a6b-6fb1-4165-baf7-01d617c29bb6-attr-2-key" class="er entityLabel"/><rect height="21" width="45.453216552734375" y="45" x="120.02328491210938" class="er attributeBoxEven"/><text style="dominant-baseline: middle; font-size: 10.2px;" transform="translate(125.02328491210938,55.5)" y="0" x="0" id="text-entity-Course-21000a6b-6fb1-4165-baf7-01d617c29bb6-attr-2-comment" class="er entityLabel"/><rect height="21" width="36.947052001953125" y="66" x="0" class="er attributeBoxOdd"/><text style="dominant-baseline: middle; font-size: 10.2px;" transform="translate(5,76.5)" y="0" x="0" id="text-entity-Course-21000a6b-6fb1-4165-baf7-01d617c29bb6-attr-3-type" class="er entityLabel">String</text><rect height="21" width="59.28125" y="66" x="36.947052001953125" class="er attributeBoxOdd"/><text style="dominant-baseline: middle; font-size: 10.2px;" transform="translate(41.947052001953125,76.5)" y="0" x="0" id="text-entity-Course-21000a6b-6fb1-4165-baf7-01d617c29bb6-attr-3-name" class="er entityLabel">description</text><rect height="21" width="23.79498291015625" y="66" x="96.22830200195312" class="er attributeBoxOdd"/><text style="dominant-baseline: middle; font-size: 10.2px;" transform="translate(101.22830200195312,76.5)" y="0" x="0" id="text-entity-Course-21000a6b-6fb1-4165-baf7-01d617c29bb6-attr-3-key" class="er entityLabel"/><rect height="21" width="45.453216552734375" y="66" x="120.02328491210938" class="er attributeBoxOdd"/><text style="dominant-baseline: middle; font-size: 10.2px;" transform="translate(125.02328491210938,76.5)" y="0" x="0" id="text-entity-Course-21000a6b-6fb1-4165-baf7-01d617c29bb6-attr-3-comment" class="er entityLabel">nullable</text><rect height="21" width="36.947052001953125" y="87" x="0" class="er attributeBoxEven"/><text style="dominant-baseline: middle; font-size: 10.2px;" transform="translate(5,97.5)" y="0" x="0" id="text-entity-Course-21000a6b-6fb1-4165-baf7-01d617c29bb6-attr-4-type" class="er entityLabel">String</text><rect height="21" width="59.28125" y="87" x="36.947052001953125" class="er attributeBoxEven"/><text style="dominant-baseline: middle; font-size: 10.2px;" transform="translate(41.947052001953125,97.5)" y="0" x="0" id="text-entity-Course-21000a6b-6fb1-4165-baf7-01d617c29bb6-attr-4-name" class="er entityLabel">slug</text><rect height="21" width="23.79498291015625" y="87" x="96.22830200195312" class="er attributeBoxEven"/><text style="dominant-baseline: middle; font-size: 10.2px;" transform="translate(101.22830200195312,97.5)" y="0" x="0" id="text-entity-Course-21000a6b-6fb1-4165-baf7-01d617c29bb6-attr-4-key" class="er entityLabel"/><rect height="21" width="45.453216552734375" y="87" x="120.02328491210938" class="er attributeBoxEven"/><text style="dominant-baseline: middle; font-size: 10.2px;" transform="translate(125.02328491210938,97.5)" y="0" x="0" id="text-entity-Course-21000a6b-6fb1-4165-baf7-01d617c29bb6-attr-4-comment" class="er entityLabel"/></g><g transform="translate(20,20 )" id="entity-Lesson-e0f28a51-fff7-471a-ba8c-136ccdc79d97"><rect height="108" width="165.47650146484375" y="0" x="0" class="er entityBox"/><text style="dominant-baseline: middle; text-anchor: middle; font-size: 12px;" transform="translate(82.73825073242188,12)" y="0" x="0" id="text-entity-Lesson-e0f28a51-fff7-471a-ba8c-136ccdc79d97" class="er entityLabel">Lesson</text><rect height="21" width="36.947052001953125" y="24" x="0" class="er attributeBoxOdd"/><text style="dominant-baseline: middle; font-size: 10.2px;" transform="translate(5,34.5)" y="0" x="0" id="text-entity-Lesson-e0f28a51-fff7-471a-ba8c-136ccdc79d97-attr-1-type" class="er entityLabel">String</text><rect height="21" width="59.28125" y="24" x="36.947052001953125" class="er attributeBoxOdd"/><text style="dominant-baseline: middle; font-size: 10.2px;" transform="translate(41.947052001953125,34.5)" y="0" x="0" id="text-entity-Lesson-e0f28a51-fff7-471a-ba8c-136ccdc79d97-attr-1-name" class="er entityLabel">id</text><rect height="21" width="23.79498291015625" y="24" x="96.22830200195312" class="er attributeBoxOdd"/><text style="dominant-baseline: middle; font-size: 10.2px;" transform="translate(101.22830200195312,34.5)" y="0" x="0" id="text-entity-Lesson-e0f28a51-fff7-471a-ba8c-136ccdc79d97-attr-1-key" class="er entityLabel">PK</text><rect height="21" width="45.453216552734375" y="24" x="120.02328491210938" class="er attributeBoxOdd"/><text style="dominant-baseline: middle; font-size: 10.2px;" transform="translate(125.02328491210938,34.5)" y="0" x="0" id="text-entity-Lesson-e0f28a51-fff7-471a-ba8c-136ccdc79d97-attr-1-comment" class="er entityLabel"/><rect height="21" width="36.947052001953125" y="45" x="0" class="er attributeBoxEven"/><text style="dominant-baseline: middle; font-size: 10.2px;" transform="translate(5,55.5)" y="0" x="0" id="text-entity-Lesson-e0f28a51-fff7-471a-ba8c-136ccdc79d97-attr-2-type" class="er entityLabel">String</text><rect height="21" width="59.28125" y="45" x="36.947052001953125" class="er attributeBoxEven"/><text style="dominant-baseline: middle; font-size: 10.2px;" transform="translate(41.947052001953125,55.5)" y="0" x="0" id="text-entity-Lesson-e0f28a51-fff7-471a-ba8c-136ccdc79d97-attr-2-name" class="er entityLabel">title</text><rect height="21" width="23.79498291015625" y="45" x="96.22830200195312" class="er attributeBoxEven"/><text style="dominant-baseline: middle; font-size: 10.2px;" transform="translate(101.22830200195312,55.5)" y="0" x="0" id="text-entity-Lesson-e0f28a51-fff7-471a-ba8c-136ccdc79d97-attr-2-key" class="er entityLabel"/><rect height="21" width="45.453216552734375" y="45" x="120.02328491210938" class="er attributeBoxEven"/><text style="dominant-baseline: middle; font-size: 10.2px;" transform="translate(125.02328491210938,55.5)" y="0" x="0" id="text-entity-Lesson-e0f28a51-fff7-471a-ba8c-136ccdc79d97-attr-2-comment" class="er entityLabel"/><rect height="21" width="36.947052001953125" y="66" x="0" class="er attributeBoxOdd"/><text style="dominant-baseline: middle; font-size: 10.2px;" transform="translate(5,76.5)" y="0" x="0" id="text-entity-Lesson-e0f28a51-fff7-471a-ba8c-136ccdc79d97-attr-3-type" class="er entityLabel">String</text><rect height="21" width="59.28125" y="66" x="36.947052001953125" class="er attributeBoxOdd"/><text style="dominant-baseline: middle; font-size: 10.2px;" transform="translate(41.947052001953125,76.5)" y="0" x="0" id="text-entity-Lesson-e0f28a51-fff7-471a-ba8c-136ccdc79d97-attr-3-name" class="er entityLabel">description</text><rect height="21" width="23.79498291015625" y="66" x="96.22830200195312" class="er attributeBoxOdd"/><text style="dominant-baseline: middle; font-size: 10.2px;" transform="translate(101.22830200195312,76.5)" y="0" x="0" id="text-entity-Lesson-e0f28a51-fff7-471a-ba8c-136ccdc79d97-attr-3-key" class="er entityLabel"/><rect height="21" width="45.453216552734375" y="66" x="120.02328491210938" class="er attributeBoxOdd"/><text style="dominant-baseline: middle; font-size: 10.2px;" transform="translate(125.02328491210938,76.5)" y="0" x="0" id="text-entity-Lesson-e0f28a51-fff7-471a-ba8c-136ccdc79d97-attr-3-comment" class="er entityLabel">nullable</text><rect height="21" width="36.947052001953125" y="87" x="0" class="er attributeBoxEven"/><text style="dominant-baseline: middle; font-size: 10.2px;" transform="translate(5,97.5)" y="0" x="0" id="text-entity-Lesson-e0f28a51-fff7-471a-ba8c-136ccdc79d97-attr-4-type" class="er entityLabel">String</text><rect height="21" width="59.28125" y="87" x="36.947052001953125" class="er attributeBoxEven"/><text style="dominant-baseline: middle; font-size: 10.2px;" transform="translate(41.947052001953125,97.5)" y="0" x="0" id="text-entity-Lesson-e0f28a51-fff7-471a-ba8c-136ccdc79d97-attr-4-name" class="er entityLabel">slug</text><rect height="21" width="23.79498291015625" y="87" x="96.22830200195312" class="er attributeBoxEven"/><text style="dominant-baseline: middle; font-size: 10.2px;" transform="translate(101.22830200195312,97.5)" y="0" x="0" id="text-entity-Lesson-e0f28a51-fff7-471a-ba8c-136ccdc79d97-attr-4-key" class="er entityLabel"/><rect height="21" width="45.453216552734375" y="87" x="120.02328491210938" class="er attributeBoxEven"/><text style="dominant-baseline: middle; font-size: 10.2px;" transform="translate(125.02328491210938,97.5)" y="0" x="0" id="text-entity-Lesson-e0f28a51-fff7-471a-ba8c-136ccdc79d97-attr-4-comment" class="er entityLabel"/></g><g transform="translate(296.4719924926758,707 )" id="entity-students-6f390269-9c65-447b-8609-6638d42d3f3f"><rect height="129" width="140.19412231445312" y="0" x="0" class="er entityBox"/><text style="dominant-baseline: middle; text-anchor: middle; font-size: 12px;" transform="translate(70.09706115722656,12)" y="0" x="0" id="text-entity-students-6f390269-9c65-447b-8609-6638d42d3f3f" class="er entityLabel">students</text><rect height="21" width="54.113128662109375" y="24" x="0" class="er attributeBoxOdd"/><text style="dominant-baseline: middle; font-size: 10.2px;" transform="translate(5,34.5)" y="0" x="0" id="text-entity-students-6f390269-9c65-447b-8609-6638d42d3f3f-attr-1-type" class="er entityLabel">String</text><rect height="21" width="62.2860107421875" y="24" x="54.113128662109375" class="er attributeBoxOdd"/><text style="dominant-baseline: middle; font-size: 10.2px;" transform="translate(59.113128662109375,34.5)" y="0" x="0" id="text-entity-students-6f390269-9c65-447b-8609-6638d42d3f3f-attr-1-name" class="er entityLabel">id</text><rect height="21" width="23.79498291015625" y="24" x="116.39913940429688" class="er attributeBoxOdd"/><text style="dominant-baseline: middle; font-size: 10.2px;" transform="translate(121.39913940429688,34.5)" y="0" x="0" id="text-entity-students-6f390269-9c65-447b-8609-6638d42d3f3f-attr-1-key" class="er entityLabel">PK</text><rect height="21" width="54.113128662109375" y="45" x="0" class="er attributeBoxEven"/><text style="dominant-baseline: middle; font-size: 10.2px;" transform="translate(5,55.5)" y="0" x="0" id="text-entity-students-6f390269-9c65-447b-8609-6638d42d3f3f-attr-2-type" class="er entityLabel">String</text><rect height="21" width="62.2860107421875" y="45" x="54.113128662109375" class="er attributeBoxEven"/><text style="dominant-baseline: middle; font-size: 10.2px;" transform="translate(59.113128662109375,55.5)" y="0" x="0" id="text-entity-students-6f390269-9c65-447b-8609-6638d42d3f3f-attr-2-name" class="er entityLabel">name</text><rect height="21" width="23.79498291015625" y="45" x="116.39913940429688" class="er attributeBoxEven"/><text style="dominant-baseline: middle; font-size: 10.2px;" transform="translate(121.39913940429688,55.5)" y="0" x="0" id="text-entity-students-6f390269-9c65-447b-8609-6638d42d3f3f-attr-2-key" class="er entityLabel"/><rect height="21" width="54.113128662109375" y="66" x="0" class="er attributeBoxOdd"/><text style="dominant-baseline: middle; font-size: 10.2px;" transform="translate(5,76.5)" y="0" x="0" id="text-entity-students-6f390269-9c65-447b-8609-6638d42d3f3f-attr-3-type" class="er entityLabel">String</text><rect height="21" width="62.2860107421875" y="66" x="54.113128662109375" class="er attributeBoxOdd"/><text style="dominant-baseline: middle; font-size: 10.2px;" transform="translate(59.113128662109375,76.5)" y="0" x="0" id="text-entity-students-6f390269-9c65-447b-8609-6638d42d3f3f-attr-3-name" class="er entityLabel">email</text><rect height="21" width="23.79498291015625" y="66" x="116.39913940429688" class="er attributeBoxOdd"/><text style="dominant-baseline: middle; font-size: 10.2px;" transform="translate(121.39913940429688,76.5)" y="0" x="0" id="text-entity-students-6f390269-9c65-447b-8609-6638d42d3f3f-attr-3-key" class="er entityLabel"/><rect height="21" width="54.113128662109375" y="87" x="0" class="er attributeBoxEven"/><text style="dominant-baseline: middle; font-size: 10.2px;" transform="translate(5,97.5)" y="0" x="0" id="text-entity-students-6f390269-9c65-447b-8609-6638d42d3f3f-attr-4-type" class="er entityLabel">DateTime</text><rect height="21" width="62.2860107421875" y="87" x="54.113128662109375" class="er attributeBoxEven"/><text style="dominant-baseline: middle; font-size: 10.2px;" transform="translate(59.113128662109375,97.5)" y="0" x="0" id="text-entity-students-6f390269-9c65-447b-8609-6638d42d3f3f-attr-4-name" class="er entityLabel">created_At</text><rect height="21" width="23.79498291015625" y="87" x="116.39913940429688" class="er attributeBoxEven"/><text style="dominant-baseline: middle; font-size: 10.2px;" transform="translate(121.39913940429688,97.5)" y="0" x="0" id="text-entity-students-6f390269-9c65-447b-8609-6638d42d3f3f-attr-4-key" class="er entityLabel"/><rect height="21" width="54.113128662109375" y="108" x="0" class="er attributeBoxOdd"/><text style="dominant-baseline: middle; font-size: 10.2px;" transform="translate(5,118.5)" y="0" x="0" id="text-entity-students-6f390269-9c65-447b-8609-6638d42d3f3f-attr-5-type" class="er entityLabel">DateTime</text><rect height="21" width="62.2860107421875" y="108" x="54.113128662109375" class="er attributeBoxOdd"/><text style="dominant-baseline: middle; font-size: 10.2px;" transform="translate(59.113128662109375,118.5)" y="0" x="0" id="text-entity-students-6f390269-9c65-447b-8609-6638d42d3f3f-attr-5-name" class="er entityLabel">updated_At</text><rect height="21" width="23.79498291015625" y="108" x="116.39913940429688" class="er attributeBoxOdd"/><text style="dominant-baseline: middle; font-size: 10.2px;" transform="translate(121.39913940429688,118.5)" y="0" x="0" id="text-entity-students-6f390269-9c65-447b-8609-6638d42d3f3f-attr-5-key" class="er entityLabel"/></g><g transform="translate(316.56905364990234,259.5 )" id="entity-enrollments-7a493e4e-1d24-4d42-bd0c-13888d19672a"><rect height="45" width="100" y="0" x="0" class="er entityBox"/><text style="dominant-baseline: middle; text-anchor: middle; font-size: 12px;" transform="translate(50,12)" y="0" x="0" id="text-entity-enrollments-7a493e4e-1d24-4d42-bd0c-13888d19672a" class="er entityLabel">enrollments</text><rect height="21" width="43.94526163736979" y="24" x="0" class="er attributeBoxOdd"/><text style="dominant-baseline: middle; font-size: 10.2px;" transform="translate(5,34.5)" y="0" x="0" id="text-entity-enrollments-7a493e4e-1d24-4d42-bd0c-13888d19672a-attr-1-type" class="er entityLabel">String</text><rect height="21" width="25.261545817057293" y="24" x="43.94526163736979" class="er attributeBoxOdd"/><text style="dominant-baseline: middle; font-size: 10.2px;" transform="translate(48.94526163736979,34.5)" y="0" x="0" id="text-entity-enrollments-7a493e4e-1d24-4d42-bd0c-13888d19672a-attr-1-name" class="er entityLabel">id</text><rect height="21" width="30.793192545572918" y="24" x="69.20680745442708" class="er attributeBoxOdd"/><text style="dominant-baseline: middle; font-size: 10.2px;" transform="translate(74.20680745442708,34.5)" y="0" x="0" id="text-entity-enrollments-7a493e4e-1d24-4d42-bd0c-13888d19672a-attr-1-key" class="er entityLabel">PK</text></g><rect height="14" width="65.375" y="664.6279296875" x="72.01519012451172" class="er relationshipLabelBox"/><text style="text-anchor: middle; dominant-baseline: middle; font-size: 12px;" y="671.6279296875" x="104.70269012451172" id="rel1" class="er relationshipLabel">enum:status</text><rect height="14" width="42.033203125" y="649.9373168945312" x="247.9736328125" class="er relationshipLabelBox"/><text style="text-anchor: middle; dominant-baseline: middle; font-size: 12px;" y="656.9373168945312" x="268.990234375" id="rel2" class="er relationshipLabel">Student</text><rect height="14" width="19.34375" y="380.08441162109375" x="96.34629821777344" class="er relationshipLabelBox"/><text style="text-anchor: middle; dominant-baseline: middle; font-size: 12px;" y="387.08441162109375" x="106.01817321777344" id="rel3" class="er relationshipLabel">trail</text><rect height="14" width="36.34375" y="171" x="84.56637573242188" class="er relationshipLabelBox"/><text style="text-anchor: middle; dominant-baseline: middle; font-size: 12px;" y="178" x="102.73825073242188" id="rel4" class="er relationshipLabel">course</text><rect height="14" width="42.033203125" y="497.034423828125" x="395.5381774902344" class="er relationshipLabelBox"/><text style="text-anchor: middle; dominant-baseline: middle; font-size: 12px;" y="504.034423828125" x="416.5547790527344" id="rel5" class="er relationshipLabel">Student</text><rect height="14" width="22.890625" y="362.47796630859375" x="273.5253601074219" class="er relationshipLabelBox"/><text style="text-anchor: middle; dominant-baseline: middle; font-size: 12px;" y="369.47796630859375" x="284.9706726074219" id="rel6" class="er relationshipLabel">Trail</text></svg>